<svg width="395" height="539" viewBox="0 0 395 539" fill="none" xmlns="http://www.w3.org/2000/svg">
<rect width="395" height="539" rx="10" fill="#191E2E"/>
<path d="M178.65 498H174.1L168.5 489.9V498H164.5V480.5H168.5V488.1L173.85 480.5H178.4L172.5 489.025L178.65 498ZM180.024 484V480.5H183.774V484H180.024ZM180.024 498V485.5H183.774V498H180.024ZM193.519 485.15C194.702 485.15 195.66 485.592 196.394 486.475C197.144 487.342 197.519 488.542 197.519 490.075V498H193.769V490.4C193.769 489.8 193.61 489.35 193.294 489.05C192.994 488.75 192.594 488.6 192.094 488.6C190.877 488.6 190.269 489.3 190.269 490.7V498H186.519V485.5H190.269V486.65C190.919 485.65 192.002 485.15 193.519 485.15ZM210.646 496.45C209.363 497.717 207.796 498.35 205.946 498.35C204.096 498.35 202.53 497.717 201.246 496.45C199.963 495.167 199.321 493.6 199.321 491.75C199.321 489.9 199.963 488.342 201.246 487.075C202.53 485.792 204.096 485.15 205.946 485.15C207.796 485.15 209.363 485.792 210.646 487.075C211.93 488.342 212.571 489.9 212.571 491.75C212.571 493.6 211.93 495.167 210.646 496.45ZM203.896 493.875C204.446 494.425 205.13 494.7 205.946 494.7C206.763 494.7 207.446 494.425 207.996 493.875C208.546 493.325 208.821 492.617 208.821 491.75C208.821 490.883 208.546 490.175 207.996 489.625C207.446 489.075 206.763 488.8 205.946 488.8C205.13 488.8 204.446 489.075 203.896 489.625C203.346 490.175 203.071 490.883 203.071 491.75C203.071 492.617 203.346 493.325 203.896 493.875ZM216.167 486.4C217.167 485.567 218.401 485.15 219.867 485.15C221.334 485.15 222.567 485.583 223.567 486.45C224.567 487.3 225.067 488.525 225.067 490.125V498H221.417V497.025C220.651 497.908 219.576 498.35 218.192 498.35C217.026 498.35 216.042 498.008 215.242 497.325C214.459 496.642 214.067 495.683 214.067 494.45C214.067 493.217 214.459 492.258 215.242 491.575C216.042 490.892 217.026 490.55 218.192 490.55C219.492 490.55 220.567 490.867 221.417 491.5V490.375C221.417 489.192 220.901 488.6 219.867 488.6C219.367 488.6 218.984 488.717 218.717 488.95C218.451 489.183 218.317 489.492 218.317 489.875H214.667C214.667 488.392 215.167 487.233 216.167 486.4ZM219.517 495.7C220.117 495.7 220.584 495.583 220.917 495.35C221.251 495.117 221.417 494.817 221.417 494.45C221.417 494.067 221.251 493.767 220.917 493.55C220.584 493.317 220.117 493.2 219.517 493.2C218.967 493.2 218.542 493.317 218.242 493.55C217.959 493.767 217.817 494.067 217.817 494.45C217.817 494.833 217.959 495.142 218.242 495.375C218.542 495.592 218.967 495.7 219.517 495.7ZM231.235 487.475C231.435 486.758 231.827 486.208 232.41 485.825C232.994 485.442 233.685 485.25 234.485 485.25V489.5C233.619 489.367 232.86 489.508 232.21 489.925C231.56 490.342 231.235 491.067 231.235 492.1V498H227.485V485.5H231.235V487.475ZM239.159 493.25C239.576 494.633 240.551 495.325 242.084 495.325C242.534 495.325 242.959 495.242 243.359 495.075C243.759 494.892 244.051 494.658 244.234 494.375L247.884 494.35C247.484 495.65 246.768 496.642 245.734 497.325C244.701 498.008 243.468 498.35 242.034 498.35C240.001 498.35 238.359 497.725 237.109 496.475C235.859 495.225 235.234 493.65 235.234 491.75C235.234 489.867 235.859 488.3 237.109 487.05C238.376 485.783 239.984 485.15 241.934 485.15C243.751 485.15 245.251 485.775 246.434 487.025C247.634 488.275 248.234 489.85 248.234 491.75C248.234 492.283 248.184 492.783 248.084 493.25H239.159ZM239.134 490.4H244.509C244.143 489.117 243.276 488.475 241.909 488.475C240.476 488.475 239.551 489.117 239.134 490.4ZM251.788 486.4C252.788 485.567 254.021 485.15 255.488 485.15C256.954 485.15 258.188 485.583 259.188 486.45C260.188 487.3 260.688 488.525 260.688 490.125V498H257.038V497.025C256.271 497.908 255.196 498.35 253.813 498.35C252.646 498.35 251.663 498.008 250.863 497.325C250.079 496.642 249.688 495.683 249.688 494.45C249.688 493.217 250.079 492.258 250.863 491.575C251.663 490.892 252.646 490.55 253.813 490.55C255.113 490.55 256.188 490.867 257.038 491.5V490.375C257.038 489.192 256.521 488.6 255.488 488.6C254.988 488.6 254.604 488.717 254.338 488.95C254.071 489.183 253.938 489.492 253.938 489.875H250.288C250.288 488.392 250.788 487.233 251.788 486.4ZM255.138 495.7C255.738 495.7 256.204 495.583 256.538 495.35C256.871 495.117 257.038 494.817 257.038 494.45C257.038 494.067 256.871 493.767 256.538 493.55C256.204 493.317 255.738 493.2 255.138 493.2C254.588 493.2 254.163 493.317 253.863 493.55C253.579 493.767 253.438 494.067 253.438 494.45C253.438 494.833 253.579 495.142 253.863 495.375C254.163 495.592 254.588 495.7 255.138 495.7Z" fill="#404961"/>
<path d="M146.266 483.492C146.266 482.096 145.13 480.961 143.734 480.961C142.339 480.961 141.203 482.096 141.203 483.492C141.203 484.888 142.339 486.023 143.734 486.023C145.13 486.023 146.266 484.888 146.266 483.492ZM142.141 483.492C142.141 482.613 142.856 481.898 143.734 481.898C144.613 481.898 145.328 482.613 145.328 483.492C145.328 484.371 144.613 485.086 143.734 485.086C142.856 485.086 142.141 484.371 142.141 483.492Z" fill="#404961"/>
<path d="M139.644 489.552C140.247 489.246 140.693 488.722 140.902 488.08C141.111 487.437 141.057 486.751 140.75 486.149C140.443 485.546 139.92 485.1 139.277 484.891C138.634 484.682 137.949 484.736 137.346 485.043C136.744 485.35 136.297 485.873 136.089 486.516C135.88 487.158 135.934 487.844 136.24 488.446C136.547 489.049 137.07 489.495 137.713 489.704C137.971 489.788 138.235 489.83 138.498 489.83C138.892 489.83 139.283 489.736 139.644 489.552ZM138.003 488.813C137.598 488.681 137.269 488.4 137.076 488.021C136.883 487.642 136.849 487.21 136.98 486.805C137.112 486.401 137.393 486.071 137.772 485.878C137.999 485.762 138.246 485.704 138.494 485.704C138.659 485.704 138.826 485.73 138.988 485.782C139.392 485.914 139.722 486.195 139.915 486.574C140.108 486.953 140.142 487.385 140.011 487.79C139.879 488.195 139.598 488.524 139.219 488.717C138.839 488.91 138.408 488.944 138.003 488.813Z" fill="#404961"/>
<path d="M139.009 495.503C139.457 495.829 139.977 495.986 140.493 495.986C141.277 495.986 142.05 495.624 142.544 494.943C142.942 494.396 143.102 493.727 142.996 493.06C142.891 492.392 142.531 491.805 141.984 491.408C141.437 491.01 140.768 490.85 140.1 490.956C139.433 491.061 138.846 491.421 138.449 491.968C137.628 493.097 137.88 494.683 139.009 495.503ZM139.207 492.519C139.457 492.174 139.827 491.948 140.247 491.882C140.332 491.868 140.416 491.862 140.5 491.862C140.834 491.862 141.158 491.966 141.433 492.166C142.144 492.683 142.302 493.681 141.786 494.392C141.269 495.103 140.271 495.261 139.56 494.745C138.849 494.228 138.691 493.23 139.207 492.519Z" fill="#404961"/>
<path d="M146.975 495.986C147.491 495.986 148.012 495.829 148.46 495.503C149.589 494.683 149.84 493.097 149.02 491.968C148.622 491.421 148.036 491.061 147.368 490.956C146.7 490.85 146.031 491.01 145.484 491.408C144.937 491.805 144.578 492.392 144.472 493.059C144.366 493.727 144.527 494.396 144.924 494.943C145.419 495.624 146.192 495.986 146.975 495.986ZM146.035 492.166C146.38 491.916 146.801 491.815 147.221 491.881C147.642 491.948 148.011 492.174 148.261 492.519C148.778 493.23 148.62 494.228 147.909 494.745C147.198 495.261 146.199 495.103 145.683 494.392C145.166 493.681 145.325 492.683 146.035 492.166Z" fill="#404961"/>
<path d="M148.191 484.891C147.548 485.1 147.025 485.546 146.719 486.149C146.412 486.751 146.358 487.437 146.567 488.08C146.775 488.722 147.222 489.246 147.824 489.552C148.186 489.736 148.577 489.829 148.971 489.829C149.234 489.829 149.498 489.788 149.755 489.704C150.398 489.495 150.921 489.049 151.228 488.446C151.535 487.844 151.589 487.158 151.38 486.516C151.171 485.873 150.725 485.35 150.122 485.043C149.52 484.736 148.834 484.682 148.191 484.891ZM149.697 485.878C150.076 486.071 150.357 486.4 150.489 486.805C150.62 487.21 150.586 487.642 150.393 488.021C150.2 488.4 149.87 488.681 149.466 488.813C149.061 488.944 148.629 488.91 148.25 488.717C147.871 488.524 147.59 488.195 147.458 487.79C147.327 487.385 147.361 486.953 147.554 486.574C147.747 486.195 148.076 485.914 148.481 485.782C148.643 485.73 148.809 485.704 148.975 485.704C149.223 485.704 149.469 485.762 149.697 485.878Z" fill="#404961"/>
<path d="M145.342 489C145.342 488.114 144.621 487.393 143.734 487.393C142.848 487.393 142.127 488.114 142.127 489C142.127 489.886 142.848 490.607 143.734 490.607C144.621 490.607 145.342 489.886 145.342 489ZM143.064 489C143.064 488.631 143.365 488.33 143.734 488.33C144.104 488.33 144.404 488.631 144.404 489C144.404 489.369 144.104 489.67 143.734 489.67C143.365 489.67 143.064 489.369 143.064 489Z" fill="#404961"/>
<path d="M156.863 497.707C156.333 497.177 155.628 496.885 154.878 496.885C154.129 496.885 153.424 497.177 152.894 497.707C152.191 498.41 151.257 498.797 150.263 498.797H148.134C149.308 498.269 150.388 497.527 151.325 496.59C153.352 494.563 154.469 491.867 154.469 489C154.469 486.903 153.864 484.871 152.719 483.124C152.577 482.908 152.287 482.847 152.07 482.989C151.854 483.131 151.793 483.422 151.935 483.638C152.979 485.232 153.531 487.086 153.531 489C153.531 494.402 149.136 498.797 143.734 498.797C138.332 498.797 133.938 494.402 133.938 489C133.938 483.598 138.332 479.203 143.734 479.203C145.652 479.203 147.509 479.757 149.104 480.804C149.32 480.947 149.611 480.886 149.753 480.67C149.895 480.453 149.835 480.163 149.619 480.021C147.87 478.873 145.835 478.266 143.734 478.266C140.867 478.266 138.171 479.382 136.144 481.41C134.117 483.437 133 486.133 133 489C133 491.867 134.117 494.563 136.144 496.59C138.171 498.618 140.867 499.734 143.734 499.734H150.263C151.508 499.734 152.677 499.25 153.557 498.37C153.91 498.017 154.379 497.823 154.878 497.823C155.377 497.823 155.847 498.017 156.2 498.37C156.383 498.553 156.68 498.553 156.863 498.37C157.046 498.187 157.046 497.89 156.863 497.707Z" fill="#404961"/>
<path d="M150.997 482.212C151.12 482.212 151.241 482.163 151.328 482.076C151.415 481.988 151.465 481.867 151.465 481.744C151.465 481.62 151.415 481.5 151.328 481.412C151.241 481.325 151.12 481.275 150.997 481.275C150.873 481.275 150.752 481.325 150.665 481.412C150.578 481.5 150.528 481.62 150.528 481.744C150.528 481.867 150.578 481.988 150.665 482.076C150.752 482.163 150.873 482.212 150.997 482.212Z" fill="#404961"/>
<path d="M119.636 314H114.866L107.366 304.13V314H103.226V293H107.366V302.27L114.566 293H119.336L111.566 303.23L119.636 314ZM143.643 308.51C143.303 310.23 142.433 311.65 141.033 312.77C139.633 313.87 138.003 314.42 136.143 314.42C133.883 314.42 131.993 313.66 130.473 312.14C128.973 310.62 128.223 308.74 128.223 306.5C128.223 304.26 128.973 302.38 130.473 300.86C131.993 299.34 133.883 298.58 136.143 298.58C138.003 298.58 139.633 299.13 141.033 300.23C142.433 301.33 143.303 302.74 143.643 304.46H139.563C139.283 303.82 138.833 303.32 138.213 302.96C137.613 302.58 136.923 302.39 136.143 302.39C135.003 302.39 134.043 302.78 133.263 303.56C132.483 304.32 132.093 305.3 132.093 306.5C132.093 307.68 132.483 308.66 133.263 309.44C134.043 310.2 135.003 310.58 136.143 310.58C136.943 310.58 137.643 310.4 138.243 310.04C138.863 309.66 139.303 309.15 139.563 308.51H143.643ZM158.776 312.14C157.236 313.66 155.356 314.42 153.136 314.42C150.916 314.42 149.036 313.66 147.496 312.14C145.976 310.6 145.216 308.72 145.216 306.5C145.216 304.28 145.976 302.41 147.496 300.89C149.036 299.35 150.916 298.58 153.136 298.58C155.356 298.58 157.236 299.35 158.776 300.89C160.316 302.41 161.086 304.28 161.086 306.5C161.086 308.72 160.316 310.6 158.776 312.14ZM150.226 309.47C151.006 310.25 151.976 310.64 153.136 310.64C154.296 310.64 155.266 310.25 156.046 309.47C156.826 308.69 157.216 307.7 157.216 306.5C157.216 305.3 156.826 304.31 156.046 303.53C155.266 302.75 154.296 302.36 153.136 302.36C151.976 302.36 151.006 302.75 150.226 303.53C149.466 304.31 149.086 305.3 149.086 306.5C149.086 307.7 149.466 308.69 150.226 309.47ZM182.974 314H178.624L174.034 307.28V314H170.254V307.28L165.664 314H161.344L166.744 306.41L161.644 299H165.964L170.254 305.51V299H174.034V305.51L178.324 299H182.674L177.544 306.41L182.974 314ZM190.287 298.58C192.047 298.58 193.507 299.1 194.667 300.14C195.827 301.16 196.407 302.6 196.407 304.46V314H192.627V312.71C191.687 313.85 190.327 314.42 188.547 314.42C187.127 314.42 185.927 314.01 184.947 313.19C183.987 312.35 183.507 311.18 183.507 309.68C183.507 308.18 183.987 307.02 184.947 306.2C185.927 305.38 187.127 304.97 188.547 304.97C190.247 304.97 191.607 305.41 192.627 306.29V304.7C192.627 303.02 191.847 302.18 190.287 302.18C189.587 302.18 189.027 302.36 188.607 302.72C188.187 303.06 187.977 303.52 187.977 304.1H184.197C184.197 302.4 184.777 301.06 185.937 300.08C187.117 299.08 188.567 298.58 190.287 298.58ZM189.867 311.54C190.707 311.54 191.377 311.37 191.877 311.03C192.377 310.67 192.627 310.22 192.627 309.68C192.627 309.1 192.377 308.65 191.877 308.33C191.397 307.99 190.727 307.82 189.867 307.82C189.047 307.82 188.427 307.99 188.007 308.33C187.587 308.67 187.377 309.12 187.377 309.68C187.377 310.24 187.587 310.69 188.007 311.03C188.427 311.37 189.047 311.54 189.867 311.54ZM211.58 299V314H207.71V302.72H204.41V307.73C204.41 312.31 202.3 314.46 198.08 314.18V310.55C199.72 310.77 200.54 309.76 200.54 307.52V299H204.41H211.58ZM218.347 308.09C218.587 309.11 219.067 309.89 219.787 310.43C220.527 310.95 221.397 311.21 222.397 311.21C223.077 311.21 223.697 311.07 224.257 310.79C224.817 310.51 225.227 310.15 225.487 309.71L229.297 309.68C228.837 311.18 227.987 312.35 226.747 313.19C225.527 314.01 224.067 314.42 222.367 314.42C219.967 314.42 218.027 313.67 216.547 312.17C215.067 310.67 214.327 308.78 214.327 306.5C214.327 304.24 215.067 302.36 216.547 300.86C218.027 299.34 219.937 298.58 222.277 298.58C224.457 298.58 226.247 299.34 227.647 300.86C229.047 302.38 229.747 304.26 229.747 306.5C229.747 307.14 229.697 307.67 229.597 308.09H218.347ZM218.317 305.06H225.877C225.657 304.04 225.217 303.29 224.557 302.81C223.897 302.31 223.127 302.06 222.247 302.06C221.227 302.06 220.377 302.32 219.697 302.84C219.017 303.36 218.557 304.1 218.317 305.06ZM241.332 299H245.202V314H241.332V308.3H236.262V314H232.392V299H236.262V304.67H241.332V299ZM258.67 299H261.55V314H257.77V305.3L251.62 314H248.74V299H252.52V307.7L258.67 299ZM278.737 298.58C280.957 298.58 282.837 299.35 284.377 300.89C285.917 302.41 286.687 304.28 286.687 306.5C286.687 308.72 285.917 310.6 284.377 312.14C282.837 313.66 280.957 314.42 278.737 314.42C276.857 314.42 275.217 313.85 273.817 312.71C272.417 311.57 271.517 310.1 271.117 308.3H268.957V314H265.087V299H268.957V304.67H271.117C271.517 302.89 272.417 301.43 273.817 300.29C275.217 299.15 276.857 298.58 278.737 298.58ZM275.827 309.47C276.607 310.25 277.577 310.64 278.737 310.64C279.897 310.64 280.867 310.25 281.647 309.47C282.427 308.69 282.817 307.7 282.817 306.5C282.817 305.3 282.427 304.31 281.647 303.53C280.867 302.75 279.897 302.36 278.737 302.36C277.577 302.36 276.607 302.75 275.827 303.53C275.067 304.31 274.687 305.3 274.687 306.5C274.687 307.7 275.067 308.69 275.827 309.47ZM288.586 309.71H292.846V314C292.846 315.26 292.466 316.26 291.706 317C290.966 317.76 289.926 318.15 288.586 318.17V316.43C289.286 316.39 289.786 316.19 290.086 315.83C290.406 315.47 290.566 314.86 290.566 314H288.586V309.71ZM97.6754 338.37C98.9954 339.79 99.6554 341.5 99.6554 343.5C99.6554 345.5 98.9954 347.21 97.6754 348.63C96.3554 350.05 94.5454 350.92 92.2454 351.24V357H88.4654V351.24C86.1654 350.92 84.3554 350.05 83.0354 348.63C81.7154 347.21 81.0554 345.5 81.0554 343.5C81.0554 341.5 81.7154 339.79 83.0354 338.37C84.3554 336.95 86.1654 336.08 88.4654 335.76V330H92.2454V335.76C94.5454 336.08 96.3554 336.95 97.6754 338.37ZM85.7954 340.92C85.1754 341.64 84.8654 342.5 84.8654 343.5C84.8654 344.5 85.1754 345.36 85.7954 346.08C86.4154 346.8 87.3054 347.29 88.4654 347.55V339.45C87.3054 339.71 86.4154 340.2 85.7954 340.92ZM92.2454 347.55C93.3854 347.29 94.2654 346.8 94.8854 346.08C95.5054 345.36 95.8154 344.5 95.8154 343.5C95.8154 342.5 95.5054 341.64 94.8854 340.92C94.2654 340.2 93.3854 339.71 92.2454 339.45V347.55ZM115.153 349.14C113.613 350.66 111.733 351.42 109.513 351.42C107.293 351.42 105.413 350.66 103.873 349.14C102.353 347.6 101.593 345.72 101.593 343.5C101.593 341.28 102.353 339.41 103.873 337.89C105.413 336.35 107.293 335.58 109.513 335.58C111.733 335.58 113.613 336.35 115.153 337.89C116.693 339.41 117.463 341.28 117.463 343.5C117.463 345.72 116.693 347.6 115.153 349.14ZM106.603 346.47C107.383 347.25 108.353 347.64 109.513 347.64C110.673 347.64 111.643 347.25 112.423 346.47C113.203 345.69 113.593 344.7 113.593 343.5C113.593 342.3 113.203 341.31 112.423 340.53C111.643 339.75 110.673 339.36 109.513 339.36C108.353 339.36 107.383 339.75 106.603 340.53C105.843 341.31 105.463 342.3 105.463 343.5C105.463 344.7 105.843 345.69 106.603 346.47ZM130.219 336V339.63H126.139V351H122.269V339.63H118.129V336H126.139H130.219ZM144.596 349.14C143.056 350.66 141.176 351.42 138.956 351.42C136.736 351.42 134.856 350.66 133.316 349.14C131.796 347.6 131.036 345.72 131.036 343.5C131.036 341.28 131.796 339.41 133.316 337.89C134.856 336.35 136.736 335.58 138.956 335.58C141.176 335.58 143.056 336.35 144.596 337.89C146.136 339.41 146.906 341.28 146.906 343.5C146.906 345.72 146.136 347.6 144.596 349.14ZM136.046 346.47C136.826 347.25 137.796 347.64 138.956 347.64C140.116 347.64 141.086 347.25 141.866 346.47C142.646 345.69 143.036 344.7 143.036 343.5C143.036 342.3 142.646 341.31 141.866 340.53C141.086 339.75 140.116 339.36 138.956 339.36C137.796 339.36 136.826 339.75 136.046 340.53C135.286 341.31 134.906 342.3 134.906 343.5C134.906 344.7 135.286 345.69 136.046 346.47ZM169.908 349.14C168.368 350.66 166.488 351.42 164.268 351.42C162.048 351.42 160.168 350.66 158.628 349.14C157.108 347.6 156.348 345.72 156.348 343.5C156.348 341.28 157.108 339.41 158.628 337.89C160.168 336.35 162.048 335.58 164.268 335.58C166.488 335.58 168.368 336.35 169.908 337.89C171.448 339.41 172.218 341.28 172.218 343.5C172.218 345.72 171.448 347.6 169.908 349.14ZM161.358 346.47C162.138 347.25 163.108 347.64 164.268 347.64C165.428 347.64 166.398 347.25 167.178 346.47C167.958 345.69 168.348 344.7 168.348 343.5C168.348 342.3 167.958 341.31 167.178 340.53C166.398 339.75 165.428 339.36 164.268 339.36C163.108 339.36 162.138 339.75 161.358 340.53C160.598 341.31 160.218 342.3 160.218 343.5C160.218 344.7 160.598 345.69 161.358 346.47ZM184.975 336V339.63H180.895V351H177.025V339.63H172.885V336H180.895H184.975ZM201.212 345.51C200.872 347.23 200.002 348.65 198.602 349.77C197.202 350.87 195.572 351.42 193.712 351.42C191.452 351.42 189.562 350.66 188.042 349.14C186.542 347.62 185.792 345.74 185.792 343.5C185.792 341.26 186.542 339.38 188.042 337.86C189.562 336.34 191.452 335.58 193.712 335.58C195.572 335.58 197.202 336.13 198.602 337.23C200.002 338.33 200.872 339.74 201.212 341.46H197.132C196.852 340.82 196.402 340.32 195.782 339.96C195.182 339.58 194.492 339.39 193.712 339.39C192.572 339.39 191.612 339.78 190.832 340.56C190.052 341.32 189.662 342.3 189.662 343.5C189.662 344.68 190.052 345.66 190.832 346.44C191.612 347.2 192.572 347.58 193.712 347.58C194.512 347.58 195.212 347.4 195.812 347.04C196.432 346.66 196.872 346.15 197.132 345.51H201.212ZM211.594 336H215.734L210.634 351C209.934 353.12 208.904 354.67 207.544 355.65C206.184 356.65 204.574 357.1 202.714 357V353.4C203.754 353.42 204.574 353.22 205.174 352.8C205.774 352.4 206.244 351.72 206.584 350.76L200.854 336H204.994L208.624 345.87L211.594 336ZM228.188 336V339.63H224.108V351H220.238V339.63H216.098V336H224.108H228.188ZM244.425 345.51C244.085 347.23 243.215 348.65 241.815 349.77C240.415 350.87 238.785 351.42 236.925 351.42C234.665 351.42 232.775 350.66 231.255 349.14C229.755 347.62 229.005 345.74 229.005 343.5C229.005 341.26 229.755 339.38 231.255 337.86C232.775 336.34 234.665 335.58 236.925 335.58C238.785 335.58 240.415 336.13 241.815 337.23C243.215 338.33 244.085 339.74 244.425 341.46H240.345C240.065 340.82 239.615 340.32 238.995 339.96C238.395 339.58 237.705 339.39 236.925 339.39C235.785 339.39 234.825 339.78 234.045 340.56C233.265 341.32 232.875 342.3 232.875 343.5C232.875 344.68 233.265 345.66 234.045 346.44C234.825 347.2 235.785 347.58 236.925 347.58C237.725 347.58 238.425 347.4 239.025 347.04C239.645 346.66 240.085 346.15 240.345 345.51H244.425ZM257.075 336V339.63H252.995V351H249.125V339.63H244.985V336H252.995H257.075ZM270.12 342.12C270.94 342.5 271.57 343.05 272.01 343.77C272.47 344.49 272.7 345.31 272.7 346.23C272.7 347.63 272.23 348.78 271.29 349.68C270.37 350.56 269.04 351 267.3 351H259.14V344.49V336H262.77H266.04C267.48 336 268.64 336.39 269.52 337.17C270.4 337.95 270.84 338.91 270.84 340.05C270.84 340.75 270.6 341.44 270.12 342.12ZM262.77 339.12V341.55H266.94C267.1 341.27 267.18 340.97 267.18 340.65C267.18 340.19 267.02 339.82 266.7 339.54C266.4 339.24 265.99 339.1 265.47 339.12H262.77ZM266.97 347.79C268.27 347.79 268.92 347.23 268.92 346.11C268.92 345.03 268.27 344.49 266.97 344.49H262.77V347.79H266.97ZM282.581 336H286.721L281.621 351C280.921 353.12 279.891 354.67 278.531 355.65C277.171 356.65 275.561 357.1 273.701 357V353.4C274.741 353.42 275.561 353.22 276.161 352.8C276.761 352.4 277.231 351.72 277.571 350.76L271.841 336H275.981L279.611 345.87L282.581 336ZM291.443 345.09C291.683 346.11 292.163 346.89 292.883 347.43C293.623 347.95 294.493 348.21 295.493 348.21C296.173 348.21 296.793 348.07 297.353 347.79C297.913 347.51 298.323 347.15 298.583 346.71L302.393 346.68C301.933 348.18 301.083 349.35 299.843 350.19C298.623 351.01 297.163 351.42 295.463 351.42C293.063 351.42 291.123 350.67 289.643 349.17C288.163 347.67 287.423 345.78 287.423 343.5C287.423 341.24 288.163 339.36 289.643 337.86C291.123 336.34 293.033 335.58 295.373 335.58C297.553 335.58 299.343 336.34 300.743 337.86C302.143 339.38 302.843 341.26 302.843 343.5C302.843 344.14 302.793 344.67 302.693 345.09H291.443ZM291.413 342.06H298.973C298.753 341.04 298.313 340.29 297.653 339.81C296.993 339.31 296.223 339.06 295.343 339.06C294.323 339.06 293.473 339.32 292.793 339.84C292.113 340.36 291.653 341.1 291.413 342.06ZM315.639 336V339.63H311.559V351H307.689V339.63H303.549V336H311.559H315.639Z" fill="#404961"/>
<g clip-path="url(#clip0_1_15643)">
<path d="M238.106 195.93C236.369 194.111 233.971 193.035 231.241 193.035H217.513V192.87C217.513 190.803 216.686 188.818 215.28 187.495C213.875 186.089 211.972 185.262 209.905 185.262H185.095C182.945 185.262 181.043 186.089 179.637 187.495C178.231 188.901 177.404 190.803 177.404 192.87V193.035H163.759C161.029 193.035 158.631 194.111 156.894 195.93C155.158 197.667 154 200.148 154 202.794V243.978C154 246.708 155.075 249.106 156.894 250.843C158.631 252.579 161.112 253.737 163.759 253.737H231.241C233.971 253.737 236.369 252.662 238.106 250.843C239.842 249.106 241 246.625 241 243.978V202.794C241 200.065 239.925 197.667 238.106 195.93ZM236.7 243.978H236.617C236.617 245.467 236.038 246.79 235.046 247.783C234.053 248.775 232.73 249.354 231.241 249.354H163.759C162.27 249.354 160.947 248.775 159.954 247.783C158.962 246.79 158.383 245.467 158.383 243.978V202.794C158.383 201.305 158.962 199.982 159.954 198.99C160.947 197.997 162.27 197.419 163.759 197.419H179.72C180.96 197.419 181.952 196.426 181.952 195.186V192.787C181.952 191.878 182.283 191.051 182.862 190.472C183.441 189.893 184.268 189.562 185.178 189.562H209.905C210.815 189.562 211.642 189.893 212.221 190.472C212.799 191.051 213.13 191.878 213.13 192.787V195.186C213.13 196.426 214.123 197.419 215.363 197.419H231.324C232.813 197.419 234.136 197.997 235.128 198.99C236.121 199.982 236.7 201.305 236.7 202.794V243.978Z" fill="#404961"/>
<path d="M197.5 203.043C191.876 203.043 186.749 205.359 183.11 208.997C179.389 212.719 177.156 217.764 177.156 223.387C177.156 229.011 179.471 234.138 183.11 237.777C186.832 241.498 191.876 243.731 197.5 243.731C203.123 243.731 208.251 241.416 211.89 237.777C215.611 234.055 217.844 229.011 217.844 223.387C217.844 217.764 215.528 212.636 211.89 208.997C208.251 205.359 203.123 203.043 197.5 203.043ZM208.747 234.717C205.853 237.529 201.883 239.348 197.5 239.348C193.117 239.348 189.147 237.529 186.253 234.717C183.358 231.822 181.622 227.853 181.622 223.47C181.622 219.087 183.441 215.117 186.253 212.223C189.147 209.328 193.117 207.591 197.5 207.591C201.883 207.591 205.853 209.411 208.747 212.223C211.642 215.117 213.378 219.087 213.378 223.47C213.461 227.853 211.642 231.822 208.747 234.717Z" fill="#404961"/>
<path d="M226.941 211.064C229.179 211.064 230.993 209.249 230.993 207.011C230.993 204.773 229.179 202.959 226.941 202.959C224.703 202.959 222.889 204.773 222.889 207.011C222.889 209.249 224.703 211.064 226.941 211.064Z" fill="#404961"/>
</g>
<defs>
<clipPath id="clip0_1_15643">
<rect width="87" height="87" fill="white" transform="translate(154 176)"/>
</clipPath>
</defs>
</svg>
